<?xml version="1.0" standalone="no"?>
<!DOCTYPE svg PUBLIC "-//W3C//DTD SVG 20010904//EN"
 "http://www.w3.org/TR/2001/REC-SVG-20010904/DTD/svg10.dtd">
<svg version="1.0" xmlns="http://www.w3.org/2000/svg"
 width="512.000000pt" height="512.000000pt" viewBox="0 0 512.000000 512.000000"
 preserveAspectRatio="xMidYMid meet">
<metadata>
Created by potrace 1.16, written by Peter Selinger 2001-2019
</metadata>
<g transform="translate(0.000000,512.000000) scale(0.100000,-0.100000)"
fill="#000000" stroke="none">
<path d="M3678 4385 c-4 -5 -272 -86 -528 -160 -63 -18 -153 -45 -200 -58 -47
-14 -177 -51 -290 -82 -113 -31 -261 -73 -330 -92 -69 -19 -402 -104 -740
-189 -797 -200 -812 -203 -833 -222 -9 -8 -22 -34 -28 -56 -26 -103 -56 -136
-147 -162 -71 -20 -82 -29 -82 -65 0 -31 4 -51 128 -624 83 -384 186 -879 197
-952 7 -46 26 -67 70 -77 69 -16 223 -145 279 -234 15 -23 38 -47 51 -52 24
-9 293 54 725 170 593 159 1454 418 2184 657 234 76 235 77 261 178 21 79 51
141 92 185 l32 37 -25 99 c-31 122 -75 279 -164 584 -37 129 -114 397 -170
595 -56 198 -106 367 -110 375 -6 11 -27 15 -82 15 -87 1 -116 14 -186 85 -33
33 -58 50 -74 50 -14 0 -27 -2 -30 -5z m65 -100 c42 -52 118 -87 197 -90 l64
-3 103 -363 c57 -200 141 -499 188 -664 46 -165 101 -357 122 -426 l39 -126
-33 -38 c-45 -52 -72 -111 -86 -192 l-13 -68 -158 -53 c-87 -30 -160 -52 -163
-49 -2 3 -42 160 -88 349 -153 635 -285 1128 -399 1503 -31 99 -52 183 -48
186 8 8 210 67 232 68 8 1 28 -15 43 -34z m-327 -120 c3 -13 4 -30 2 -36 -2
-7 -391 -118 -889 -254 -486 -133 -985 -270 -1109 -304 -269 -74 -300 -80
-300 -58 0 8 -2 22 -6 30 -6 16 60 39 316 107 231 62 1599 435 1795 490 94 26
173 48 177 49 4 0 10 -10 14 -24z m35 -148 c5 -19 4 -30 -4 -32 -40 -13 -378
-109 -727 -205 -373 -103 -521 -144 -950 -265 -158 -45 -519 -137 -577 -148
-29 -6 -32 -4 -38 24 -4 17 -5 32 -3 34 7 6 334 97 563 156 390 100 1174 314
1495 408 113 33 211 59 219 58 8 -1 18 -15 22 -30z m32 -130 c5 -16 7 -29 6
-31 -2 -1 -105 -31 -229 -65 -124 -35 -376 -106 -560 -158 -184 -52 -382 -108
-440 -123 -58 -16 -197 -54 -310 -84 -428 -117 -741 -197 -749 -192 -5 3 -11
17 -13 31 -5 22 0 26 46 40 191 57 856 244 1251 350 259 70 580 158 715 195
135 37 251 67 259 67 8 -1 19 -15 24 -30z m-2434 -367 c21 -112 79 -374 156
-700 41 -173 115 -495 164 -715 50 -220 102 -449 115 -509 14 -61 24 -111 22
-113 -1 -2 -38 -12 -82 -24 -43 -11 -100 -26 -126 -34 l-47 -14 -50 69 c-59
82 -140 148 -237 196 l-72 34 -16 68 c-8 37 -29 141 -46 232 -36 187 -157 758
-225 1056 -25 110 -46 205 -48 213 -1 9 13 19 38 25 56 15 94 38 136 83 42 44
68 91 71 129 2 14 9 29 18 32 34 14 205 48 211 43 4 -3 12 -35 18 -71z m2209
3 c45 -39 172 -195 172 -212 0 -20 -19 -41 -37 -41 -8 0 -25 11 -39 25 l-25
25 -49 -17 c-30 -11 -53 -26 -59 -40 -13 -28 -47 -30 -61 -4 -17 32 -13 233 6
259 19 27 63 29 92 5z m-280 -40 c24 -21 112 -210 112 -241 0 -28 -36 -39 -60
-17 -10 9 -28 38 -39 65 -12 27 -25 51 -29 54 -5 3 -14 -17 -21 -44 -11 -44
-25 -60 -51 -60 -5 0 -26 14 -45 32 l-37 32 7 -81 c7 -78 7 -81 -15 -88 -35
-11 -47 11 -64 123 -21 133 -21 178 0 186 24 9 29 8 55 -16 13 -13 36 -34 51
-46 l26 -24 16 56 c10 32 25 61 38 71 28 19 31 19 56 -2z m-400 -135 c3 -25
-1 -28 -49 -42 -57 -17 -79 -32 -79 -52 0 -11 5 -11 24 -3 30 14 66 -3 66 -32
0 -13 -11 -25 -35 -35 -20 -8 -33 -19 -30 -24 9 -15 32 -12 76 11 46 23 87 22
103 -3 15 -25 -3 -51 -40 -59 -16 -4 -50 -16 -76 -28 -43 -20 -50 -20 -81 -7
-44 18 -63 46 -78 112 -13 59 -6 113 19 144 20 24 101 50 147 47 25 -2 31 -7
33 -29z m-290 -51 c6 -7 21 -68 33 -135 20 -114 20 -123 5 -147 -27 -41 -71
-33 -147 26 -20 16 -39 26 -41 23 -3 -3 -1 -23 4 -44 12 -46 -2 -73 -36 -68
-16 2 -24 19 -43 93 -26 106 -29 148 -8 165 17 14 17 14 125 -70 36 -27 66
-45 68 -40 2 5 -4 48 -13 95 -12 67 -13 90 -4 101 14 18 43 18 57 1z m-394
-154 c39 -78 68 -176 64 -219 -3 -34 -6 -39 -30 -42 -26 -3 -28 0 -68 125 -50
161 -51 183 -9 183 12 0 27 -17 43 -47z m-199 5 c44 -20 21 -78 -25 -63 -53
17 -109 -37 -96 -91 11 -41 49 -58 114 -49 105 13 107 13 110 -16 4 -34 -11
-45 -83 -59 -77 -16 -136 -1 -182 45 -29 29 -33 40 -33 84 0 60 17 98 60 135
35 29 90 35 135 14z m1690 -123 c0 -25 -5 -32 -32 -40 -18 -6 -34 -13 -37 -16
-3 -3 3 -37 14 -75 25 -88 25 -92 -5 -106 -36 -16 -53 3 -75 88 -16 63 -20 69
-41 65 -13 -3 -40 -5 -59 -5 -29 -1 -36 3 -38 21 -2 14 5 27 20 37 34 22 188
66 223 63 26 -2 30 -6 30 -32z m-390 -68 c13 -10 16 -21 11 -40 -5 -21 -15
-28 -61 -38 -62 -14 -71 -26 -22 -31 25 -2 33 -8 35 -27 3 -15 -3 -30 -14 -38
-31 -23 -9 -24 52 -3 76 27 108 24 112 -11 4 -34 -8 -42 -101 -69 -102 -30
-123 -24 -159 50 -15 30 -32 77 -39 103 -15 62 -4 74 88 98 84 22 76 22 98 6z
m-245 -92 c14 -17 10 -24 -44 -82 l-29 -32 27 -11 c15 -5 33 -10 39 -10 24 0
77 -40 77 -59 0 -33 -26 -45 -68 -33 -20 7 -58 18 -83 26 l-46 14 4 -43 c6
-47 -5 -60 -40 -51 -23 5 -25 10 -77 147 -31 82 -27 109 15 109 18 0 27 -8 36
-35 7 -19 16 -35 19 -35 3 0 30 25 60 55 56 57 87 68 110 40z m-345 -108 c0
-24 -6 -31 -38 -42 -68 -23 -98 -70 -65 -103 16 -16 71 -15 114 3 38 16 59 12
68 -12 12 -30 -5 -51 -51 -67 -150 -51 -262 33 -209 157 24 57 89 99 146 95
31 -3 35 -6 35 -31z m-278 -150 c41 -100 48 -134 33 -152 -33 -39 -60 -10 -99
106 -33 100 -30 133 12 127 16 -2 29 -22 54 -81z m-147 28 c20 -24 2 -54 -41
-66 -24 -8 -38 -17 -35 -25 2 -6 12 -42 21 -78 18 -71 12 -96 -25 -96 -26 0
-37 18 -56 93 -9 37 -22 67 -29 67 -6 0 -27 -5 -45 -12 -30 -10 -35 -9 -52 12
-17 21 -17 25 -4 39 17 16 198 79 232 80 12 1 27 -6 34 -14z m1844 -27 c5 -23
2 -28 -27 -37 -17 -5 -140 -42 -272 -81 -132 -39 -283 -84 -335 -100 -137 -42
-399 -120 -440 -132 -37 -10 -277 -83 -495 -149 -416 -127 -723 -215 -729
-208 -2 2 -6 16 -10 31 -6 27 -5 27 131 72 76 24 332 101 568 171 502 148 829
245 1080 320 421 127 510 153 516 147 4 -4 9 -19 13 -34z m38 -152 l3 -28
-275 -95 c-264 -90 -723 -241 -880 -288 -41 -12 -127 -38 -190 -58 -386 -118
-936 -270 -949 -262 -11 6 -20 54 -12 59 4 3 123 38 266 80 791 229 1366 408
1850 574 94 32 173 55 177 52 4 -3 8 -18 10 -34z m42 -152 c17 -44 10 -48
-157 -97 -89 -27 -256 -77 -372 -112 -115 -35 -318 -96 -450 -135 -132 -40
-384 -116 -560 -170 -508 -155 -728 -220 -748 -220 -15 0 -30 50 -19 61 8 8
325 106 592 184 206 60 1071 320 1450 435 124 38 232 69 241 69 9 1 20 -6 23
-15z"/>
<path d="M3832 3970 l-17 -41 -46 6 c-35 5 -48 3 -59 -10 -11 -14 -8 -22 28
-58 l42 -42 -21 -62 c-32 -94 -9 -119 61 -68 19 14 38 25 43 25 5 0 25 -14 44
-31 32 -28 37 -29 51 -15 13 13 14 23 4 63 l-11 48 40 38 c55 51 49 61 -43 81
-20 4 -30 16 -39 43 -24 75 -52 84 -77 23z"/>
<path d="M3990 3460 c-11 -11 -20 -27 -20 -36 0 -13 -8 -15 -52 -9 -107 14
-115 2 -41 -68 l46 -45 -16 -41 c-21 -52 -22 -100 -2 -107 8 -3 35 6 59 20
l44 26 31 -35 c55 -63 92 -38 70 49 -6 26 -10 48 -8 50 2 1 21 15 42 30 57 44
45 68 -41 82 -37 6 -41 9 -51 49 -13 50 -34 62 -61 35z"/>
<path d="M4081 2958 c-17 -42 -18 -42 -63 -39 -32 2 -48 -2 -59 -15 -12 -15
-9 -21 30 -55 l43 -39 -17 -69 c-24 -100 -9 -114 63 -61 23 17 44 30 48 30 3
0 21 -12 40 -26 56 -43 76 -21 53 59 -10 37 -9 40 25 71 57 50 50 66 -36 81
-32 6 -39 12 -49 44 -24 74 -51 81 -78 19z"/>
<path d="M794 3205 c-4 -9 -1 -34 5 -58 11 -42 11 -42 -31 -78 -29 -25 -39
-41 -35 -52 4 -10 12 -17 19 -17 7 0 30 -5 50 -10 32 -9 39 -17 53 -60 22 -65
49 -68 73 -9 17 39 18 40 58 34 44 -6 74 1 74 18 0 6 -18 30 -40 52 l-40 41
20 59 c11 32 20 66 20 77 0 26 -32 23 -80 -7 -22 -14 -42 -25 -46 -25 -3 0
-19 11 -36 25 -34 29 -56 32 -64 10z"/>
<path d="M883 2733 c-3 -9 -2 -38 4 -65 l10 -49 -44 -30 c-58 -40 -54 -59 18
-82 54 -18 57 -21 65 -60 12 -56 45 -63 69 -16 18 33 18 33 112 13 55 -11 54
19 -1 75 l-46 46 20 53 c37 96 24 117 -52 81 l-50 -23 -30 37 c-32 39 -64 48
-75 20z"/>
<path d="M1005 2190 c-6 -9 -1 -47 11 -91 3 -10 -10 -25 -36 -43 -54 -36 -53
-61 3 -77 54 -16 57 -19 76 -76 20 -59 38 -61 69 -6 22 40 23 41 58 32 42 -12
74 -4 74 19 0 9 -16 33 -36 53 l-36 37 21 56 c38 103 26 121 -53 77 l-54 -29
-28 29 c-28 29 -58 37 -69 19z"/>
<path d="M4466 2087 l-29 -10 7 -296 c3 -163 9 -377 12 -476 l6 -180 -59 -45
c-48 -37 -65 -59 -98 -126 l-40 -82 -105 -6 c-58 -4 -133 -9 -168 -13 l-63 -5
7 536 c5 386 4 536 -4 536 -6 0 -23 -5 -39 -11 -36 -14 -384 -124 -477 -150
-305 -87 -541 -149 -971 -254 -165 -41 -372 -97 -460 -125 -88 -28 -218 -69
-290 -90 -243 -72 -233 -69 -195 -65 45 6 431 22 820 35 168 6 413 15 545 20
132 5 366 14 520 20 154 5 319 12 368 16 l87 6 0 -36 0 -36 -59 0 c-33 0 -160
-4 -283 -10 -123 -5 -342 -14 -488 -20 -146 -6 -528 -22 -849 -35 -321 -14
-626 -25 -677 -25 -87 0 -94 1 -94 20 0 15 -7 20 -25 20 l-25 0 0 -113 c0 -63
-3 -161 -6 -219 l-7 -106 -132 -1 -133 -2 -6 27 c-19 74 -83 181 -151 249 -38
38 -80 78 -93 88 -22 17 -23 21 -16 127 l7 110 -30 -11 c-27 -9 -31 -16 -37
-62 -12 -104 -7 -183 12 -200 10 -10 23 -17 29 -17 15 0 107 -102 149 -164 19
-28 43 -79 55 -114 34 -102 -5 -96 562 -94 770 2 1912 46 2625 101 129 10 139
16 179 96 34 67 94 137 137 160 19 10 37 28 40 39 7 25 -13 831 -22 932 l-7
71 -29 -10z m-616 -957 c0 -34 -4 -36 -125 -44 -44 -4 -233 -17 -420 -31 -621
-45 -1300 -75 -1686 -75 l-179 0 0 29 0 29 118 6 c64 3 200 8 302 11 271 9
877 34 1085 45 307 17 810 52 814 56 2 2 24 4 48 4 41 0 43 -1 43 -30z m0
-179 l0 -28 -102 -7 c-57 -3 -326 -15 -598 -26 -272 -11 -594 -25 -715 -30
-494 -23 -638 -29 -812 -36 l-183 -7 0 31 c0 29 3 31 43 36 46 6 369 22 622
31 370 13 1442 56 1470 59 17 1 85 4 153 4 l122 2 0 -29z"/>
<path d="M4195 2003 c-114 -33 -109 -29 -92 -54 13 -18 12 -25 -19 -77 -39
-64 -39 -65 -19 -82 14 -11 62 -8 100 6 9 4 21 -9 34 -34 23 -44 37 -54 64
-40 13 7 17 21 17 62 l0 54 49 21 c28 11 53 26 56 32 10 15 -19 43 -65 64 -29
13 -40 24 -42 44 l-3 27 -80 -23z"/>
<path d="M4189 1558 c-12 -18 -24 -35 -25 -37 -2 -2 -21 4 -43 13 -73 29 -92
-3 -44 -75 23 -35 25 -44 14 -61 -73 -118 -63 -149 40 -113 44 16 44 16 66
-12 13 -15 23 -31 23 -35 0 -12 38 -9 46 4 4 6 6 32 5 59 -1 46 0 48 41 71 61
33 62 59 3 83 -25 11 -45 19 -46 20 0 0 -3 20 -6 45 -9 77 -37 91 -74 38z"/>
</g>
</svg>
